<svg xmlns="http://www.w3.org/2000/svg" viewBox="0 0 24 24" fill="currentColor"><path fill-rule="evenodd" d="M1.5 7.5A1.5 1.5 0 0 1 3 6h11a1.5 1.5 0 0 1 1.5 1.5v9A1.5 1.5 0 0 1 14 18H3a1.5 1.5 0 0 1-1.5-1.5v-9zm1 0v9a.5.5 0 0 0 .5.5h11a.5.5 0 0 0 .5-.5v-9a.5.5 0 0 0-.5-.5H3a.5.5 0 0 0-.5.5z" clip-rule="evenodd"></path><text x="3.5" y="15" font-family="ui-monospace, Menlo, monospace" font-size="9" font-weight="700">01</text><rect x="16" y="11.5" width="5" height="1" rx="0.5"></rect><path d="M18.35 8.65a.5.5 0 0 1 .7 0l3 3a.5.5 0 0 1 0 .7l-3 3a.5.5 0 1 1-.7-.7L20.79 12l-2.44-2.65a.5.5 0 0 1 0-.7z"></path></svg>