<?xml version="1.0" encoding="UTF-8" standalone="no"?>
<svg
   viewBox="0 0 24 24"
   fill="currentColor"
   version="1.1"
   id="svg3"
   sodipodi:docname="bus.svg"
   inkscape:version="1.4.3 (0d15f75, 2025-12-25)"
   xmlns:inkscape="http://www.inkscape.org/namespaces/inkscape"
   xmlns:sodipodi="http://sodipodi.sourceforge.net/DTD/sodipodi-0.dtd"
   xmlns="http://www.w3.org/2000/svg"
   xmlns:svg="http://www.w3.org/2000/svg">
  <defs
     id="defs3" />
  <sodipodi:namedview
     id="namedview3"
     pagecolor="#ffffff"
     bordercolor="#000000"
     borderopacity="0.25"
     inkscape:showpageshadow="2"
     inkscape:pageopacity="0.0"
     inkscape:pagecheckerboard="0"
     inkscape:deskcolor="#d1d1d1"
     inkscape:zoom="32"
     inkscape:cx="16.765625"
     inkscape:cy="12.8125"
     inkscape:window-width="1280"
     inkscape:window-height="778"
     inkscape:window-x="1913"
     inkscape:window-y="719"
     inkscape:window-maximized="1"
     inkscape:current-layer="svg3" />
  <path
     id="path8"
     style="baseline-shift:baseline;display:inline;overflow:visible;opacity:1;vector-effect:none;fill:#000000;fill-opacity:1;enable-background:accumulate;stop-color:#000000;stop-opacity:1"
     d="m 7,3.2246094 c -1.0446032,0 -1.9003906,0.8557874 -1.9003906,1.9003906 v 12.5 c 0,0.492318 0.4080718,0.900391 0.9003906,0.900391 h 1.0292969 c -0.035798,0.09325 -0.054687,0.194042 -0.054687,0.298828 v 1.601562 c 0,0.463981 0.3856282,0.84961 0.8496094,0.84961 h 1.6015624 c 0.4639811,0 0.8496098,-0.385629 0.8496098,-0.84961 v -1.601562 c 0,-0.104786 -0.01889,-0.205575 -0.05469,-0.298828 h 3.871094 c -0.0358,0.09325 -0.05469,0.194042 -0.05469,0.298828 v 1.601562 c 0,0.463981 0.385629,0.84961 0.84961,0.84961 h 1.601562 c 0.463981,0 0.84961,-0.385629 0.84961,-0.84961 v -1.601562 c 0,-0.104786 -0.01889,-0.205575 -0.05469,-0.298828 H 18 c 0.492319,0 0.900391,-0.408072 0.900391,-0.900391 V 5.125 C 18.900391,4.0803968 18.044603,3.2246094 17,3.2246094 Z M 7.53125,4.140625 H 16.625 v 0.875 H 7.53125 Z M 7.6816406,5.7246094 H 16.5 c 0.492318,0 0.900391,0.4080718 0.900391,0.9003906 v 7.294922 H 6.78125 V 6.625 c 0,-0.4923184 0.4080722,-0.9003906 0.9003906,-0.9003906 z m 1.0117188,9.3007816 c 0.4083889,1.41e-4 0.7303276,0.32208 0.7304687,0.730468 -1.407e-4,0.408389 -0.3220797,0.730328 -0.7304687,0.730469 -0.408389,-1.41e-4 -0.730328,-0.32208 -0.7304688,-0.730469 1.412e-4,-0.408388 0.3220799,-0.730327 0.7304688,-0.730468 z m 6.8632816,0 c 0.408389,1.41e-4 0.730327,0.322079 0.730468,0.730468 -1.4e-4,0.408389 -0.32208,0.730328 -0.730468,0.730469 -0.408908,5.65e-4 -0.732282,-0.32156 -0.732422,-0.730469 1.41e-4,-0.408907 0.323514,-0.731033 0.732422,-0.730468 z"
     sodipodi:nodetypes="sssscssssssccsssssscssssscccccsssccsscccccccccc" />
</svg>
