<?xml version="1.0" encoding="UTF-8" standalone="no"?>
<svg
   viewBox="0 0 24 24"
   fill="currentColor"
   version="1.1"
   id="svg5"
   sodipodi:docname="command-center.svg"
   inkscape:version="1.4.3 (0d15f75, 2025-12-25)"
   xmlns:inkscape="http://www.inkscape.org/namespaces/inkscape"
   xmlns:sodipodi="http://sodipodi.sourceforge.net/DTD/sodipodi-0.dtd"
   xmlns="http://www.w3.org/2000/svg"
   xmlns:svg="http://www.w3.org/2000/svg">
  <defs
     id="defs5" />
  <sodipodi:namedview
     id="namedview5"
     pagecolor="#ffffff"
     bordercolor="#000000"
     borderopacity="0.25"
     inkscape:showpageshadow="2"
     inkscape:pageopacity="0.0"
     inkscape:pagecheckerboard="0"
     inkscape:deskcolor="#d1d1d1"
     inkscape:zoom="3.9332815"
     inkscape:cx="-4.4492112"
     inkscape:cy="-15.76292"
     inkscape:window-width="1280"
     inkscape:window-height="778"
     inkscape:window-x="1913"
     inkscape:window-y="719"
     inkscape:window-maximized="1"
     inkscape:current-layer="svg5" />
  <path
     fill-rule="evenodd"
     d="M4 9.5A1.5 1.5 0 0 1 5.5 8h13A1.5 1.5 0 0 1 20 9.5v8A1.5 1.5 0 0 1 18.5 19h-13A1.5 1.5 0 0 1 4 17.5v-8zM5.5 9a.5.5 0 0 0-.5.5v8a.5.5 0 0 0 .5.5h13a.5.5 0 0 0 .5-.5v-8a.5.5 0 0 0-.5-.5h-13z"
     clip-rule="evenodd"
     id="path1" />
  <rect
     x="9"
     y="21.5"
     width="6"
     height="1"
     rx="0.5"
     id="rect2" />
  <rect
     x="18.5"
     y="-12.5"
     width="3.8071744"
     height="1"
     rx="0.31726453"
     id="rect2-9"
     transform="rotate(90)"
     style="stroke-width:0.796573" />
  <path
     fill-rule="evenodd"
     d="M 6,10.5 C 6,10.223858 6.2238576,10 6.5,10 h 9.061798 c 0.276142,0 0.5,0.223858 0.5,0.5 v 6 c 0,0.276142 -0.223858,0.5 -0.5,0.5 H 6.5 C 6.2238576,17 6,16.776142 6,16.5 Z M 7,11 v 5 h 8.180437 v -5 z"
     clip-rule="evenodd"
     id="path2"
     sodipodi:nodetypes="sssssssssccccc" />
  <rect
     x="16.656736"
     y="14.189631"
     width="1.851627"
     height="1"
     rx="0.13225907"
     id="rect3"
     style="stroke-width:0.514313" />
  <rect
     x="16.656736"
     y="15.976149"
     width="1.851627"
     height="1"
     rx="0.13225907"
     id="rect4"
     style="stroke-width:0.514313" />
  <path
     fill-rule="evenodd"
     d="M9.15 5.85a4 4 0 0 1 5.7 0 .5.5 0 1 1-.71.71 3 3 0 0 0-4.28 0 .5.5 0 1 1-.71-.71z"
     clip-rule="evenodd"
     id="path4" />
  <path
     fill-rule="evenodd"
     d="M7.15 3.85a6.5 6.5 0 0 1 9.7 0 .5.5 0 1 1-.75.66 5.5 5.5 0 0 0-8.2 0 .5.5 0 1 1-.75-.66z"
     clip-rule="evenodd"
     id="path5" />
</svg>
