<svg xmlns="http://www.w3.org/2000/svg" viewBox="0 0 24 24" fill="currentColor"><path fill-rule="evenodd" d="M4 9.5A1.5 1.5 0 0 1 5.5 8h13A1.5 1.5 0 0 1 20 9.5v8A1.5 1.5 0 0 1 18.5 19h-13A1.5 1.5 0 0 1 4 17.5v-8zM5.5 9a.5.5 0 0 0-.5.5v8a.5.5 0 0 0 .5.5h13a.5.5 0 0 0 .5-.5v-8a.5.5 0 0 0-.5-.5h-13z" clip-rule="evenodd"></path><rect x="11.5" y="19" width="1" height="3" rx="0.5"></rect><rect x="9" y="21.5" width="6" height="1" rx="0.5"></rect><path fill-rule="evenodd" d="M6 10.5a.5.5 0 0 1 .5-.5h2.5a.5.5 0 0 1 .5.5v6a.5.5 0 0 1-.5.5H6.5a.5.5 0 0 1-.5-.5v-6zm1 .5v5h2v-5H7z" clip-rule="evenodd"></path><rect x="10.5" y="12" width="7" height="1" rx="0.5"></rect><rect x="10.5" y="15" width="7" height="1" rx="0.5"></rect><path fill-rule="evenodd" d="M9.15 5.85a4 4 0 0 1 5.7 0 .5.5 0 1 1-.71.71 3 3 0 0 0-4.28 0 .5.5 0 1 1-.71-.71z" clip-rule="evenodd"></path><path fill-rule="evenodd" d="M7.15 3.85a6.5 6.5 0 0 1 9.7 0 .5.5 0 1 1-.75.66 5.5 5.5 0 0 0-8.2 0 .5.5 0 1 1-.75-.66z" clip-rule="evenodd"></path></svg>