<svg xmlns="http://www.w3.org/2000/svg" viewBox="0 0 24 24" fill="currentColor"><path fill-rule="evenodd" d="M12 7a5 5 0 1 0 0 10 5 5 0 0 0 0-10zm0 1a4 4 0 1 1 0 8 4 4 0 0 1 0-8z" clip-rule="evenodd"></path><path d="M9.5 12a.5.5 0 0 1 .7 0l1.1 1.1 3.15-3.15a.5.5 0 1 1 .7.7l-3.5 3.5a.5.5 0 0 1-.7 0l-1.45-1.45a.5.5 0 0 1 0-.7z"></path><rect x="11.5" y="3" width="1" height="2" rx="0.5"></rect><rect x="11.5" y="19" width="1" height="2" rx="0.5"></rect><rect x="3" y="11.5" width="2" height="1" rx="0.5"></rect><rect x="19" y="11.5" width="2" height="1" rx="0.5"></rect><rect x="5.4" y="5.2" width="1" height="2" rx="0.5" transform="rotate(-45 5.9 6.2)"></rect><rect x="17.6" y="16.8" width="1" height="2" rx="0.5" transform="rotate(-45 18.1 17.8)"></rect><rect x="5.4" y="16.8" width="1" height="2" rx="0.5" transform="rotate(45 5.9 17.8)"></rect><rect x="17.6" y="5.2" width="1" height="2" rx="0.5" transform="rotate(45 18.1 6.2)"></rect></svg>