<svg xmlns="http://www.w3.org/2000/svg" viewBox="0 0 24 24" fill="currentColor"><rect x="8.5" y="3" width="7" height="2.5" rx="0.5"></rect><path fill-rule="evenodd" d="M7.8 7.6A2 2 0 0 1 9.6 6.5h4.8a2 2 0 0 1 1.8 1.1L18 12.5v7.5a1 1 0 0 1-1 1h-1.5a1 1 0 0 1-1-1v-.5h-5v.5a1 1 0 0 1-1 1H7a1 1 0 0 1-1-1v-7.5l1.8-4.9zm1.8-.1a1 1 0 0 0-.9.55L7 12.5V20h1.5v-1.5h7V20H17v-7.5l-1.7-4.45a1 1 0 0 0-.9-.55H9.6z" clip-rule="evenodd"></path><rect x="6.5" y="13" width="11" height="1" rx="0.5"></rect><rect x="6.8" y="15" width="3" height="2" rx="0.5"></rect><rect x="14.2" y="15" width="3" height="2" rx="0.5"></rect></svg>