<?xml version="1.0" encoding="UTF-8" standalone="no"?>
<svg
   viewBox="0 0 24 24"
   fill="currentColor"
   version="1.1"
   id="svg1"
   sodipodi:docname="moon.svg"
   inkscape:version="1.4.3 (0d15f75, 2025-12-25)"
   xmlns:inkscape="http://www.inkscape.org/namespaces/inkscape"
   xmlns:sodipodi="http://sodipodi.sourceforge.net/DTD/sodipodi-0.dtd"
   xmlns="http://www.w3.org/2000/svg"
   xmlns:svg="http://www.w3.org/2000/svg">
  <defs
     id="defs1" />
  <sodipodi:namedview
     id="namedview1"
     pagecolor="#ffffff"
     bordercolor="#000000"
     borderopacity="0.25"
     inkscape:showpageshadow="2"
     inkscape:pageopacity="0.0"
     inkscape:pagecheckerboard="0"
     inkscape:deskcolor="#d1d1d1"
     inkscape:zoom="38.604167"
     inkscape:cx="14.972477"
     inkscape:cy="8.4835402"
     inkscape:window-width="3840"
     inkscape:window-height="2071"
     inkscape:window-x="-9"
     inkscape:window-y="-9"
     inkscape:window-maximized="1"
     inkscape:current-layer="svg1" />
  <path
     style="baseline-shift:baseline;display:inline;overflow:visible;vector-effect:none;fill:#000000;stroke-linejoin:round;enable-background:accumulate;stop-color:#000000;stop-opacity:1;opacity:1"
     d="M 9.3183594,3.0332031 C 3.2755226,5.379128 1.6293226,13.203541 6.2128906,17.787109 10.796459,22.370677 18.620872,20.724477 20.966797,14.681641 A 0.50005,0.50005 0 0 0 20.318359,14.033203 C 17.05818,15.298856 13.863961,14.328805 11.767578,12.232422 9.671195,10.136039 8.7011438,6.9418197 9.9667969,3.6816406 A 0.50005,0.50005 0 0 0 9.3183594,3.0332031 Z M 8.7773438,4.4570312 c -0.803186,3.2368398 0.1806131,6.3798318 2.2832032,8.4824218 2.10259,2.10259 5.245582,3.086389 8.482422,2.283203 -2.497943,4.610942 -8.775848,5.704622 -12.6230471,1.857422 C 3.0727224,13.232879 4.1664019,6.9549738 8.7773438,4.4570312 Z"
     id="path1" />
</svg>
