<svg xmlns="http://www.w3.org/2000/svg" viewBox="0 0 24 24" fill="currentColor"><circle cx="12" cy="18" r="1.4"></circle><path fill-rule="evenodd" d="M7.8 14.5a.5.5 0 0 1-.04-.7 5.5 5.5 0 0 1 8.48 0 .5.5 0 0 1-.77.64 4.5 4.5 0 0 0-6.94 0 .5.5 0 0 1-.73.06z" clip-rule="evenodd"></path><path fill-rule="evenodd" d="M4.8 11.5a.5.5 0 0 1-.04-.7 9.5 9.5 0 0 1 14.48 0 .5.5 0 0 1-.77.64 8.5 8.5 0 0 0-12.94 0 .5.5 0 0 1-.73.06z" clip-rule="evenodd"></path><path fill-rule="evenodd" d="M1.8 8.5a.5.5 0 0 1-.04-.7 13.5 13.5 0 0 1 20.48 0 .5.5 0 0 1-.77.64 12.5 12.5 0 0 0-18.94 0 .5.5 0 0 1-.73.06z" clip-rule="evenodd"></path></svg>