<svg xmlns="http://www.w3.org/2000/svg" viewBox="0 0 24 24" fill="currentColor"><path fill-rule="evenodd" d="M12 3a9 9 0 0 0-8.77 7 .5.5 0 1 0 .98.22 8 8 0 0 1 13.5-3.83l-2.06 1.44A.5.5 0 0 0 16 8.5h5a.5.5 0 0 0 .5-.5V3a.5.5 0 0 0-.91-.29L19.53 4.8A9 9 0 0 0 12 3z" clip-rule="evenodd"></path><path fill-rule="evenodd" d="M20.77 14a.5.5 0 1 0-.98-.22 8 8 0 0 1-13.5 3.83l2.06-1.44A.5.5 0 0 0 8 15.5H3a.5.5 0 0 0-.5.5v5a.5.5 0 0 0 .91.29L4.47 19.2A9 9 0 0 0 20.77 14z" clip-rule="evenodd"></path></svg>