<svg xmlns="http://www.w3.org/2000/svg" viewBox="0 0 24 24" fill="currentColor"><rect x="11.5" y="2" width="1" height="9" rx="0.5"></rect><path d="M7.65 6.65a.5.5 0 0 1 .7 0L12 10.29l3.65-3.64a.5.5 0 1 1 .7.7l-4 4a.5.5 0 0 1-.7 0l-4-4a.5.5 0 0 1 0-.7z"></path><path fill-rule="evenodd" d="M2 14.5A1.5 1.5 0 0 1 3.5 13h17a1.5 1.5 0 0 1 1.5 1.5v6A1.5 1.5 0 0 1 20.5 22h-17A1.5 1.5 0 0 1 2 20.5v-6zm1.5-.5a.5.5 0 0 0-.5.5v6a.5.5 0 0 0 .5.5h17a.5.5 0 0 0 .5-.5v-6a.5.5 0 0 0-.5-.5h-17z" clip-rule="evenodd"></path><circle cx="6.5" cy="17.5" r="1"></circle><path d="M11 16.5h6v1h-6v-1zm0 2h4v1h-4v-1z"></path></svg>