<svg xmlns="http://www.w3.org/2000/svg" viewBox="0 0 24 24" fill="currentColor"><path fill-rule="evenodd" d="M11.84 2.53a.5.5 0 0 1 .32 0l8 3a.5.5 0 0 1 .34.47v6c0 4.71-3.35 8.91-8.24 10.46a.5.5 0 0 1-.32 0C7.03 20.91 3.5 16.71 3.5 12V6a.5.5 0 0 1 .34-.47l8-3zM4.5 6.35V12c0 4.16 3.1 7.95 7.5 9.47 4.4-1.52 7.5-5.31 7.5-9.47V6.35L12 3.53 4.5 6.35z" clip-rule="evenodd"></path><path d="M15.35 9.65a.5.5 0 0 1 0 .7l-4 4a.5.5 0 0 1-.7 0l-2-2a.5.5 0 1 1 .7-.7L11 13.29l3.65-3.64a.5.5 0 0 1 .7 0z"></path></svg>