<?xml version="1.0" encoding="UTF-8" standalone="no"?>
<svg
   viewBox="0 0 24 24"
   fill="currentColor"
   version="1.1"
   id="svg1"
   sodipodi:docname="settings.svg"
   inkscape:version="1.4.3 (0d15f75, 2025-12-25)"
   xmlns:inkscape="http://www.inkscape.org/namespaces/inkscape"
   xmlns:sodipodi="http://sodipodi.sourceforge.net/DTD/sodipodi-0.dtd"
   xmlns="http://www.w3.org/2000/svg"
   xmlns:svg="http://www.w3.org/2000/svg">
  <defs
     id="defs1" />
  <sodipodi:namedview
     id="namedview1"
     pagecolor="#ffffff"
     bordercolor="#000000"
     borderopacity="0.25"
     inkscape:showpageshadow="2"
     inkscape:pageopacity="0.0"
     inkscape:pagecheckerboard="0"
     inkscape:deskcolor="#d1d1d1"
     showgrid="false"
     inkscape:zoom="31.466252"
     inkscape:cx="13.141063"
     inkscape:cy="11.472609"
     inkscape:window-width="1280"
     inkscape:window-height="778"
     inkscape:window-x="1913"
     inkscape:window-y="719"
     inkscape:window-maximized="1"
     inkscape:current-layer="svg1" />
  <path
     style="baseline-shift:baseline;display:inline;overflow:visible;vector-effect:none;fill:#000000;enable-background:accumulate;stop-color:#000000"
     d="m 12,3.5 c -0.885759,0 -1.772143,0.1372172 -2.625,0.4140625 L 9.0078125,4.0332031 9.140625,6.2050781 C 8.8883903,6.3290989 8.6461888,6.4694013 8.4121094,6.625 L 6.6054687,5.4179687 6.3164062,5.6777344 C 4.9778425,6.8798956 4.0554096,8.4764301 3.6816406,10.236328 l -0.082031,0.378906 1.9433593,0.964844 c -0.018145,0.279964 -0.018145,0.55988 0,0.839844 l -1.9433593,0.964844 0.082031,0.378906 c 0.373769,1.759898 1.2962019,3.356432 2.6347656,4.558594 L 6.6054687,18.582031 8.4121094,17.375 c 0.2340795,0.155599 0.4762808,0.295901 0.7285156,0.419922 L 9.0078125,19.966797 9.375,20.085937 c 1.705714,0.553691 3.544286,0.553691 5.25,0 l 0.367188,-0.11914 -0.132813,-2.171875 C 15.11161,17.670901 15.353811,17.530599 15.587891,17.375 l 1.80664,1.207031 0.289063,-0.259765 c 1.338563,-1.202161 2.260996,-2.798695 2.634765,-4.558594 l 0.08203,-0.378906 -1.94336,-0.964844 c 0.01814,-0.279964 0.01814,-0.55988 0,-0.839844 l 1.94336,-0.964844 -0.08203,-0.378906 C 19.94459,8.47643 19.022157,6.8798956 17.683594,5.6777344 L 17.394531,5.4179687 15.587891,6.625 C 15.353811,6.4694013 15.11161,6.3290989 14.859375,6.2050781 L 14.992188,4.0332031 14.625,3.9140625 C 13.772143,3.6372172 12.885759,3.5 12,3.5 Z m 0,1 c 0.655675,0 1.304778,0.1346898 1.943359,0.3066406 l -0.125,1.9960938 0.328125,0.1386718 c 0.413931,0.1746703 0.804794,0.3982018 1.164063,0.6679688 l 0.283203,0.2128906 1.660156,-1.1074219 c 0.941678,0.9364649 1.611725,2.093519 1.953125,3.3769533 l -1.787109,0.888672 0.04297,0.349609 c 0.05448,0.444449 0.05448,0.895395 0,1.339844 l -0.04297,0.349609 1.787109,0.888672 c -0.3414,1.283435 -1.011447,2.440489 -1.953125,3.376953 l -1.660156,-1.107422 -0.283203,0.212891 c -0.359269,0.269767 -0.750132,0.493299 -1.164063,0.667969 l -0.328125,0.138672 0.125,1.996093 c -1.277161,0.343902 -2.609557,0.343902 -3.886718,0 l 0.125,-1.996093 -0.3281254,-0.138672 C 9.4395853,16.883924 9.0487217,16.660392 8.6894531,16.390625 L 8.40625,16.177734 6.7460937,17.285156 C 5.8044162,16.348692 5.1343689,15.191638 4.7929687,13.908203 l 1.7871094,-0.888672 -0.042969,-0.349609 c -0.054479,-0.444448 -0.054479,-0.895396 0,-1.339844 L 6.5800781,10.980469 4.7929687,10.091797 C 5.1343689,8.8083626 5.8044162,7.6513085 6.7460937,6.7148437 L 8.40625,7.8222656 8.6894531,7.609375 C 9.0487217,7.3396081 9.4395852,7.1160766 9.8535156,6.9414062 l 0.3281254,-0.1386718 -0.125,-1.9960938 C 10.695222,4.6346898 11.344325,4.5 12,4.5 Z"
     id="path4" />
  <circle
     cx="12"
     cy="12"
     r="2"
     id="circle1" />
</svg>
