<svg xmlns="http://www.w3.org/2000/svg" viewBox="0 0 24 24" fill="currentColor"><path fill-rule="evenodd" d="M 9.53,4.39 A 8 8 0 0 1 14.47,4.39 L 14.34,6.48 A 6 6 0 0 1 15.61,7.21 L 17.35,6.05 A 8 8 0 0 1 19.83,10.34 L 17.96,11.27 A 6 6 0 0 1 17.96,12.73 L 19.83,13.66 A 8 8 0 0 1 17.35,17.95 L 15.61,16.79 A 6 6 0 0 1 14.34,17.52 L 14.47,19.61 A 8 8 0 0 1 9.53,19.61 L 9.66,17.52 A 6 6 0 0 1 8.39,16.79 L 6.65,17.95 A 8 8 0 0 1 4.17,13.66 L 6.04,12.73 A 6 6 0 0 1 6.04,11.27 L 4.17,10.34 A 8 8 0 0 1 6.65,6.05 L 8.39,7.21 A 6 6 0 0 1 9.66,6.48 Z M 9.81,5.25 A 7.1 7.1 0 0 1 14.19,5.25 L 13.99,7.31 A 5.1 5.1 0 0 1 15.07,7.93 L 16.75,6.72 A 7.1 7.1 0 0 1 18.94,10.52 L 17.06,11.38 A 5.1 5.1 0 0 1 17.06,12.62 L 18.94,13.48 A 7.1 7.1 0 0 1 16.75,17.28 L 15.07,16.07 A 5.1 5.1 0 0 1 13.99,16.69 L 14.19,18.75 A 7.1 7.1 0 0 1 9.81,18.75 L 10.01,16.69 A 5.1 5.1 0 0 1 8.93,16.07 L 7.25,17.28 A 7.1 7.1 0 0 1 5.06,13.48 L 6.94,12.62 A 5.1 5.1 0 0 1 6.94,11.38 L 5.06,10.52 A 7.1 7.1 0 0 1 7.25,6.72 L 8.93,7.93 A 5.1 5.1 0 0 1 10.01,7.31 Z" clip-rule="evenodd"></path><circle cx="12" cy="12" r="2"></circle></svg>