<?xml version="1.0" encoding="UTF-8" standalone="no"?>
<svg
   viewBox="0 0 24 24"
   fill="currentColor"
   version="1.1"
   id="svg3"
   sodipodi:docname="settings-sliders.svg"
   inkscape:version="1.4.3 (0d15f75, 2025-12-25)"
   xmlns:inkscape="http://www.inkscape.org/namespaces/inkscape"
   xmlns:sodipodi="http://sodipodi.sourceforge.net/DTD/sodipodi-0.dtd"
   xmlns="http://www.w3.org/2000/svg"
   xmlns:svg="http://www.w3.org/2000/svg">
  <defs
     id="defs3" />
  <sodipodi:namedview
     id="namedview3"
     pagecolor="#ffffff"
     bordercolor="#000000"
     borderopacity="0.25"
     inkscape:showpageshadow="2"
     inkscape:pageopacity="0.0"
     inkscape:pagecheckerboard="0"
     inkscape:deskcolor="#d1d1d1"
     inkscape:zoom="38.604167"
     inkscape:cx="13.249865"
     inkscape:cy="12.511603"
     inkscape:window-width="1280"
     inkscape:window-height="778"
     inkscape:window-x="1913"
     inkscape:window-y="719"
     inkscape:window-maximized="1"
     inkscape:current-layer="svg3"
     showgrid="false" />
  <circle
     cx="8"
     cy="12"
     r="1.8"
     id="circle2" />
  <circle
     cx="14"
     cy="18"
     r="1.8"
     id="circle3" />
  <circle
     style="fill:#000000;stroke:none;stroke-width:5.1"
     id="path4"
     cx="14.001079"
     cy="17.783054"
     r="1.9816514" />
  <ellipse
     style="fill:#000000;stroke:none;stroke-width:5.158"
     id="path4-5"
     cx="7.9983807"
     cy="11.740422"
     rx="1.9816514"
     ry="2.0269833" />
  <path
     id="path4-1"
     style="fill:#000000;stroke:none;stroke-width:5.1"
     d="M 16.246094 3.5117188 A 1.9816514 1.9816514 0 0 0 14.328125 5 L 3.5 5 C 3.2238576 5 3 5.2238576 3 5.5 C 3 5.7761424 3.2238576 6 3.5 6 L 14.330078 6 A 1.9816514 1.9816514 0 0 0 16.246094 7.4746094 A 1.9816514 1.9816514 0 0 0 18.162109 6 L 20.5 6 C 21.166666 6 21.166666 5 20.5 5 L 18.166016 5 A 1.9816514 1.9816514 0 0 0 16.246094 3.5117188 z M 8 10.275391 C 7.3267346 10.275391 6.6526098 10.516662 6.1191406 11 L 3.5 11 C 3.2238576 11 3 11.223858 3 11.5 C 3 11.776142 3.2238576 12 3.5 12 L 6.1191406 12 C 7.186079 12.966675 8.813921 12.966675 9.8808594 12 L 20.5 12 C 21.166666 12 21.166666 11 20.5 11 L 9.8808594 11 C 9.3473902 10.516663 8.6732654 10.275391 8 10.275391 z M 14 16.275391 C 13.326735 16.275391 12.65261 16.516663 12.119141 17 L 3.5 17 C 3.2238576 17 3 17.223858 3 17.5 C 3 17.776142 3.2238576 18 3.5 18 L 12.119141 18 C 13.186079 18.966675 14.813921 18.966675 15.880859 18 L 20.5 18 C 21.166666 18 21.166666 17 20.5 17 L 15.880859 17 C 15.34739 16.516663 14.673265 16.275391 14 16.275391 z " />
</svg>
