<svg xmlns="http://www.w3.org/2000/svg" viewBox="0 0 24 24" fill="currentColor"><path fill-rule="evenodd" d="M5.5 5a2 2 0 0 0-2 2v12a2 2 0 0 0 2 2h13a2 2 0 0 0 2-2V7a2 2 0 0 0-2-2h-13zm0 1h13a1 1 0 0 1 1 1v2h-15V7a1 1 0 0 1 1-1zm-1 4h15v9a1 1 0 0 1-1 1h-13a1 1 0 0 1-1-1v-9z" clip-rule="evenodd"></path><rect x="7.5" y="3" width="1" height="4" rx="0.5"></rect><rect x="15.5" y="3" width="1" height="4" rx="0.5"></rect><circle cx="12" cy="14" r="2"></circle><path d="M12 13v1.3l0.9 0.6-0.54 0.81L11 14.5V13h1z"></path></svg>