<svg xmlns="http://www.w3.org/2000/svg" viewBox="0 0 24 24" fill="currentColor"><path fill-rule="evenodd" d="M10.5 2.5a3 3 0 0 0-3 3v13a3 3 0 0 0 3 3h3a3 3 0 0 0 3-3v-13a3 3 0 0 0-3-3h-3zm0 1h3a2 2 0 0 1 2 2v13a2 2 0 0 1-2 2h-3a2 2 0 0 1-2-2v-13a2 2 0 0 1 2-2z" clip-rule="evenodd"></path><circle cx="12" cy="7" r="1.8"></circle><path fill-rule="evenodd" d="M12 10.2a1.8 1.8 0 1 0 0 3.6 1.8 1.8 0 0 0 0-3.6zm0 1a0.8 0.8 0 1 1 0 1.6 0.8 0.8 0 0 1 0-1.6z" clip-rule="evenodd"></path><path fill-rule="evenodd" d="M12 15.2a1.8 1.8 0 1 0 0 3.6 1.8 1.8 0 0 0 0-3.6zm0 1a0.8 0.8 0 1 1 0 1.6 0.8 0.8 0 0 1 0-1.6z" clip-rule="evenodd"></path><rect x="5" y="5.5" width="2.5" height="1" rx="0.5"></rect><rect x="5" y="11.5" width="2.5" height="1" rx="0.5"></rect><rect x="5" y="17.5" width="2.5" height="1" rx="0.5"></rect><rect x="16.5" y="5.5" width="2.5" height="1" rx="0.5"></rect><rect x="16.5" y="11.5" width="2.5" height="1" rx="0.5"></rect><rect x="16.5" y="17.5" width="2.5" height="1" rx="0.5"></rect></svg>