<svg xmlns="http://www.w3.org/2000/svg" viewBox="0 0 24 24" fill="currentColor"><path fill-rule="evenodd" d="M3 7a2 2 0 0 1 2-2h14a2 2 0 0 1 2 2v11a1 1 0 0 1-1 1h-1a1 1 0 0 1-1-1v-1H6v1a1 1 0 0 1-1 1H4a1 1 0 0 1-1-1V7zm2-1a1 1 0 0 0-1 1v4h16V7a1 1 0 0 0-1-1H5zm-1 6v4h16v-4H4zm1 5v1h1v-1H5zm13 0v1h1v-1h-1z" clip-rule="evenodd"></path><circle cx="7" cy="14.5" r="1.2"></circle><circle cx="17" cy="14.5" r="1.2"></circle><rect x="5.5" y="19.5" width="1" height="2" rx="0.5"></rect><rect x="17.5" y="19.5" width="1" height="2" rx="0.5"></rect><rect x="11.5" y="6" width="1" height="5" rx="0.5" fill="#fff" opacity="0"></rect></svg>