<svg xmlns="http://www.w3.org/2000/svg" viewBox="0 0 24 24" fill="currentColor"><path fill-rule="evenodd" d="M9 4.5a3.5 3.5 0 1 0 0 7 3.5 3.5 0 0 0 0-7zm0 1a2.5 2.5 0 1 1 0 5 2.5 2.5 0 0 1 0-5z" clip-rule="evenodd"></path><path fill-rule="evenodd" d="M9 13a7 7 0 0 0-7 7 .5.5 0 0 0 1 0 6 6 0 0 1 12 0 .5.5 0 0 0 1 0 7 7 0 0 0-7-7z" clip-rule="evenodd"></path><circle cx="17" cy="9" r="2.5"></circle><path d="M14 15.3a6.5 6.5 0 0 1 3-.8c2.65 0 4.85 1.9 5 4.5h-.98A4 4 0 0 0 17 15.5a5.7 5.7 0 0 0-2.25.45.5.5 0 0 1-.58-.18l-.4-.43c-.02-.02-.02-.04 0-.05z"></path></svg>